<!DOCTYPE svg PUBLIC "-//W3C//DTD SVG 1.1//EN" "http://www.w3.org/Graphics/SVG/1.1/DTD/svg11.dtd"><svg xmlns="http://www.w3.org/2000/svg" xmlns:xlink="http://www.w3.org/1999/xlink"><symbol viewBox="0 0 32 32" id="svg-arrow"><path d="M31.946 16.013C31.946 7.226 24.794.077 16.01.077 7.223.077.074 7.227.074 16.013S7.224 31.95 16.01 31.95s15.936-7.15 15.936-15.937zm-30.036 0c0-7.776 6.323-14.1 14.1-14.1s14.1 6.324 14.1 14.1-6.335 14.1-14.105 14.1S1.91 23.788 1.91 16.012zm22.224-1.664c.358-.353.358-.94 0-1.297-.358-.37-.94-.37-1.3 0l-6.825 6.82-6.827-6.823c-.362-.358-.944-.358-1.302 0-.178.18-.268.416-.268.65 0 .25.077.48.256.662l7.49 7.462c.36.362.942.362 1.3 0l7.475-7.472z"/></symbol><symbol viewBox="0 0 25 32" id="svg-cancel"><path d="M12.34 17.236l-.05-.05-9.002 9-1.14-1.112 9.027-9.026L2.1 6.973l1.14-1.135L13.35 16.125z"/><path d="M12.29 14.986l9.023-9.026L22.35 7.1l-8.997 9.025 9.123 9.05-1.135 1.135-10.165-10.263z"/></symbol></svg>