<?xml version="1.0" encoding="utf-8"?>
<!-- Generated by IcoMoon.io -->
<!DOCTYPE svg PUBLIC "-//W3C//DTD SVG 1.1//EN" "http://www.w3.org/Graphics/SVG/1.1/DTD/svg11.dtd">
<svg version="1.1" xmlns="http://www.w3.org/2000/svg" xmlns:xlink="http://www.w3.org/1999/xlink" width="32" height="32" viewBox="0 0 32 32">
<path d="M31.946 16.013c0-8.787-7.152-15.936-15.936-15.936-8.787 0-15.936 7.149-15.936 15.936s7.149 15.936 15.936 15.936 15.936-7.149 15.936-15.936zM1.91 16.013c0-7.776 6.323-14.099 14.099-14.099s14.102 6.323 14.102 14.099c0 7.776-6.336 14.099-14.106 14.099s-14.096-6.323-14.096-14.099zM24.134 14.349c0.358-0.352 0.358-0.938 0-1.296-0.358-0.371-0.941-0.371-1.299 0l-6.826 6.819-6.826-6.822c-0.362-0.358-0.944-0.358-1.302 0-0.179 0.179-0.269 0.416-0.269 0.65 0 0.25 0.077 0.48 0.256 0.662l7.491 7.462c0.358 0.362 0.941 0.362 1.299 0l7.475-7.472z"></path>
</svg>
